HIERARCHY
ROOT Root
{
  OFFSET 0.0 0.0 0.0
  CHANNELS 6 Xposition Yposition Zposition Zrotation Yrotation Xrotation
  JOINT Hips
  {
    OFFSET 0.0 100.0 0.0
    CHANNELS 6 Xposition Yposition Zposition Zrotation Yrotation Xrotation
    JOINT Spine1
    {
      OFFSET 5.003913 -0.037094 -0.013727
      CHANNELS 3 Zrotation Yrotation Xrotation
      JOINT Spine2
      {
        OFFSET 7.125363 -1e-06 0.0
        CHANNELS 3 Zrotation Yrotation Xrotation
        JOINT Chest
        {
          OFFSET 7.594027 1e-06 0.0
          CHANNELS 3 Zrotation Yrotation Xrotation
          JOINT Neck1
          {
            OFFSET 26.313086 -0.460272 -0.181672
            CHANNELS 3 Zrotation Yrotation Xrotation
            JOINT Neck2
            {
              OFFSET 8.045911 0.0 0.0
              CHANNELS 3 Zrotation Yrotation Xrotation
              JOINT Head
              {
                OFFSET 6.432774 0.0 0.0
                CHANNELS 3 Zrotation Yrotation Xrotation
                JOINT HeadEnd
                {
                  OFFSET 16.169773 0.06451 0.00362
                  CHANNELS 3 Zrotation Yrotation Xrotation
                }
                JOINT Jaw
                {
                  OFFSET 0.108741 3.12938 0.002639
                  CHANNELS 3 Zrotation Yrotation Xrotation
                }
                JOINT LeftEye
                {
                  OFFSET 4.45173 8.166359 3.206392
                  CHANNELS 3 Zrotation Yrotation Xrotation
                }
                JOINT RightEye
                {
                  OFFSET 4.436895 8.135758 -3.222429
                  CHANNELS 3 Zrotation Yrotation Xrotation
                }
              }
            }
          }
          JOINT LeftShoulder
          {
            OFFSET 23.218927 5.195579 1.621656
            CHANNELS 3 Zrotation Yrotation Xrotation
            JOINT LeftArm
            {
              OFFSET 15.902118 2e-06 -2e-06
              CHANNELS 3 Zrotation Yrotation Xrotation
              JOINT LeftForeArm
              {
                OFFSET 28.739307 0.0 -1e-06
                CHANNELS 3 Zrotation Yrotation Xrotation
                JOINT LeftHand
                {
                  OFFSET 27.093981 -4e-06 0.0
                  CHANNELS 3 Zrotation Yrotation Xrotation
                  JOINT LeftHandThumb1
                  {
                    OFFSET 2.276781 3.380274 0.83384
                    CHANNELS 3 Zrotation Yrotation Xrotation
                    JOINT LeftHandThumb2
                    {
                      OFFSET 4.705309 -1e-06 -1e-06
                      CHANNELS 3 Zrotation Yrotation Xrotation
                      JOINT LeftHandThumb3
                      {
                        OFFSET 2.798515 0.0 3e-06
                        CHANNELS 3 Zrotation Yrotation Xrotation
                        JOINT LeftHandThumbEnd
                        {
                          OFFSET 3.180793 4e-06 -4e-06
                          CHANNELS 3 Zrotation Yrotation Xrotation
                        }
                      }
                    }
                  }
                  JOINT LeftHandIndex1
                  {
                    OFFSET 3.247786 2.352677 0.137192
                    CHANNELS 3 Zrotation Yrotation Xrotation
                    JOINT LeftHandIndex2
                    {
                      OFFSET 6.367095 1e-06 0.0
                      CHANNELS 3 Zrotation Yrotation Xrotation
                      JOINT LeftHandIndex3
                      {
                        OFFSET 3.662364 0.0 0.0
                        CHANNELS 3 Zrotation Yrotation Xrotation
                        JOINT LeftHandIndex4
                        {
                          OFFSET 2.329242 4e-06 -4e-06
                          CHANNELS 3 Zrotation Yrotation Xrotation
                          JOINT LeftHandIndexEnd
                          {
                            OFFSET 2.767823 1e-06 0.0
                            CHANNELS 3 Zrotation Yrotation Xrotation
                          }
                        }
                      }
                    }
                  }
                  JOINT LeftHandMiddle1
                  {
                    OFFSET 3.163612 0.945023 -0.406112
                    CHANNELS 3 Zrotation Yrotation Xrotation
                    JOINT LeftHandMiddle2
                    {
                      OFFSET 6.276789 3e-06 0.0
                      CHANNELS 3 Zrotation Yrotation Xrotation
                      JOINT LeftHandMiddle3
                      {
                        OFFSET 4.35652 -1e-06 4e-06
                        CHANNELS 3 Zrotation Yrotation Xrotation
                        JOINT LeftHandMiddle4
                        {
                          OFFSET 2.996877 0.0 8e-06
                          CHANNELS 3 Zrotation Yrotation Xrotation
                          JOINT LeftHandMiddleEnd
                          {
                            OFFSET 2.323256 3e-06 -4e-06
                            CHANNELS 3 Zrotation Yrotation Xrotation
                          }
                        }
                      }
                    }
                  }
                  JOINT LeftHandRing1
                  {
                    OFFSET 2.882606 -0.309162 0.107445
                    CHANNELS 3 Zrotation Yrotation Xrotation
                    JOINT LeftHandRing2
                    {
                      OFFSET 6.033198 0.0 4e-06
                      CHANNELS 3 Zrotation Yrotation Xrotation
                      JOINT LeftHandRing3
                      {
                        OFFSET 4.350578 3e-06 0.0
                        CHANNELS 3 Zrotation Yrotation Xrotation
                        JOINT LeftHandRing4
                        {
                          OFFSET 2.651321 2e-06 -7e-06
                          CHANNELS 3 Zrotation Yrotation Xrotation
                          JOINT LeftHandRingEnd
                          {
                            OFFSET 1.937663 1e-06 -4e-06
                            CHANNELS 3 Zrotation Yrotation Xrotation
                          }
                        }
                      }
                    }
                  }
                  JOINT LeftHandPinky1
                  {
                    OFFSET 2.865315 -1.525436 0.575687
                    CHANNELS 3 Zrotation Yrotation Xrotation
                    JOINT LeftHandPinky2
                    {
                      OFFSET 5.54936 1e-06 -8e-06
                      CHANNELS 3 Zrotation Yrotation Xrotation
                      JOINT LeftHandPinky3
                      {
                        OFFSET 3.070974 0.0 -4e-06
                        CHANNELS 3 Zrotation Yrotation Xrotation
                        JOINT LeftHandPinky4
                        {
                          OFFSET 1.549672 1e-06 0.0
                          CHANNELS 3 Zrotation Yrotation Xrotation
                          JOINT LeftHandPinkyEnd
                          {
                            OFFSET 1.952123 0.0 0.0
                            CHANNELS 3 Zrotation Yrotation Xrotation
                          }
                        }
                      }
                    }
                  }
                }
              }
            }
          }
          JOINT RightShoulder
          {
            OFFSET 23.161716 5.296122 -1.380114
            CHANNELS 3 Zrotation Yrotation Xrotation
            JOINT RightArm
            {
              OFFSET -16.027195 -2e-06 1.1e-05
              CHANNELS 3 Zrotation Yrotation Xrotation
              JOINT RightForeArm
              {
                OFFSET -28.736639 4e-06 2e-06
                CHANNELS 3 Zrotation Yrotation Xrotation
                JOINT RightHand
                {
                  OFFSET -27.133619 6e-06 0.0
                  CHANNELS 3 Zrotation Yrotation Xrotation
                  JOINT RightHandThumb1
                  {
                    OFFSET -2.274328 -3.351035 -0.83067
                    CHANNELS 3 Zrotation Yrotation Xrotation
                    JOINT RightHandThumb2
                    {
                      OFFSET -4.703594 -3e-06 2e-06
                      CHANNELS 3 Zrotation Yrotation Xrotation
                      JOINT RightHandThumb3
                      {
                        OFFSET -2.794935 -4e-06 -3e-06
                        CHANNELS 3 Zrotation Yrotation Xrotation
                        JOINT RightHandThumbEnd
                        {
                          OFFSET -3.183852 4e-06 1e-06
                          CHANNELS 3 Zrotation Yrotation Xrotation
                        }
                      }
                    }
                  }
                  JOINT RightHandIndex1
                  {
                    OFFSET -3.253496 -2.33755 -0.127667
                    CHANNELS 3 Zrotation Yrotation Xrotation
                    JOINT RightHandIndex2
                    {
                      OFFSET -6.344434 0.0 0.0
                      CHANNELS 3 Zrotation Yrotation Xrotation
                      JOINT RightHandIndex3
                      {
                        OFFSET -3.654871 0.0 -8e-06
                        CHANNELS 3 Zrotation Yrotation Xrotation
                        JOINT RightHandIndex4
                        {
                          OFFSET -2.327586 -1e-06 0.0
                          CHANNELS 3 Zrotation Yrotation Xrotation
                          JOINT RightHandIndexEnd
                          {
                            OFFSET -2.770001 3e-06 8e-06
                            CHANNELS 3 Zrotation Yrotation Xrotation
                          }
                        }
                      }
                    }
                  }
                  JOINT RightHandMiddle1
                  {
                    OFFSET -3.168223 -0.944764 0.411762
                    CHANNELS 3 Zrotation Yrotation Xrotation
                    JOINT RightHandMiddle2
                    {
                      OFFSET -6.266691 -1e-06 -4e-06
                      CHANNELS 3 Zrotation Yrotation Xrotation
                      JOINT RightHandMiddle3
                      {
                        OFFSET -4.348901 0.0 0.0
                        CHANNELS 3 Zrotation Yrotation Xrotation
                        JOINT RightHandMiddle4
                        {
                          OFFSET -3.00024 2e-06 -4e-06
                          CHANNELS 3 Zrotation Yrotation Xrotation
                          JOINT RightHandMiddleEnd
                          {
                            OFFSET -2.321477 -4e-06 -4e-06
                            CHANNELS 3 Zrotation Yrotation Xrotation
                          }
                        }
                      }
                    }
                  }
                  JOINT RightHandRing1
                  {
                    OFFSET -2.885654 0.293261 -0.119232
                    CHANNELS 3 Zrotation Yrotation Xrotation
                    JOINT RightHandRing2
                    {
                      OFFSET -6.032835 -1e-06 -4e-06
                      CHANNELS 3 Zrotation Yrotation Xrotation
                      JOINT RightHandRing3
                      {
                        OFFSET -4.33881 0.0 -4e-06
                        CHANNELS 3 Zrotation Yrotation Xrotation
                        JOINT RightHandRing4
                        {
                          OFFSET -2.654903 -4e-06 -4e-06
                          CHANNELS 3 Zrotation Yrotation Xrotation
                          JOINT RightHandRingEnd
                          {
                            OFFSET -1.935122 0.0 4e-06
                            CHANNELS 3 Zrotation Yrotation Xrotation
                          }
                        }
                      }
                    }
                  }
                  JOINT RightHandPinky1
                  {
                    OFFSET -2.866241 1.503904 -0.60527
                    CHANNELS 3 Zrotation Yrotation Xrotation
                    JOINT RightHandPinky2
                    {
                      OFFSET -5.553177 -2e-06 0.0
                      CHANNELS 3 Zrotation Yrotation Xrotation
                      JOINT RightHandPinky3
                      {
                        OFFSET -3.062664 -1e-06 -4e-06
                        CHANNELS 3 Zrotation Yrotation Xrotation
                        JOINT RightHandPinky4
                        {
                          OFFSET -1.546529 2e-06 4e-06
                          CHANNELS 3 Zrotation Yrotation Xrotation
                          JOINT RightHandPinkyEnd
                          {
                            OFFSET -1.952341 0.0 -4e-06
                            CHANNELS 3 Zrotation Yrotation Xrotation
                          }
                        }
                      }
                    }
                  }
                }
              }
            }
          }
        }
      }
    }
    JOINT LeftLeg
    {
      OFFSET -8.443107 2.567604 10.043214
      CHANNELS 3 Zrotation Yrotation Xrotation
      JOINT LeftShin
      {
        OFFSET 43.229198 1e-06 -1e-06
        CHANNELS 3 Zrotation Yrotation Xrotation
        JOINT LeftFoot
        {
          OFFSET 42.298611 1e-06 1e-06
          CHANNELS 3 Zrotation Yrotation Xrotation
          JOINT LeftToeBase
          {
            OFFSET 14.165858 1e-06 0.0
            CHANNELS 3 Zrotation Yrotation Xrotation
            JOINT LeftToeEnd
            {
              OFFSET 6.7141 -0.234461 0.0
              CHANNELS 3 Zrotation Yrotation Xrotation
            }
          }
        }
      }
    }
    JOINT RightLeg
    {
      OFFSET -8.303923 2.592729 -10.047278
      CHANNELS 3 Zrotation Yrotation Xrotation
      JOINT RightShin
      {
        OFFSET -43.369682 0.0 1e-06
        CHANNELS 3 Zrotation Yrotation Xrotation
        JOINT RightFoot
        {
          OFFSET -42.260784 4e-06 2e-06
          CHANNELS 3 Zrotation Yrotation Xrotation
          JOINT RightToeBase
          {
            OFFSET -14.222245 -2e-06 -1e-06
            CHANNELS 3 Zrotation Yrotation Xrotation
            JOINT RightToeEnd
            {
              OFFSET -6.660062 0.232574 -2e-06
              CHANNELS 3 Zrotation Yrotation Xrotation
            }
          }
        }
      }
    }
  }
}
MOTION
Frames: 5
Frame Time: 0.03333333333333333
0.0 0.0 0.0 0.0 -0.0 0.0 1.675833 98.229538 -5.15409 89.76442 3.176295 89.896324 -2.766864 0.807484 -0.40328 -12.332974 -0.405636 -0.421389 19.668905 0.804258 -2.936513 22.72278 -2.766321 2.570418 -2.573955 -0.711713 -2.218352 -34.137211 0.772358 -5.285838 6e-06 -0.0 0.0 0.044826 0.037769 0.121357 0.059383 0.019132 0.115983 0.009983 0.057763 0.130905 -119.450737 -78.132065 141.790802 56.35688 -51.391136 10.252948 21.284615 0.42787 0.009599 -3.411403 2.193503 -6.330036 17.636631 -26.322727 52.411182 -19.46666 -14.395597 29.410381 -0.0 -8.774822 -0.0 15.884147 -18.074238 6.188588 -0.609776 -1.795653 -3.88933 -4.807089 -11.046811 -2.93785 4e-06 -20.976019 -1e-06 -5.019971 -25.03356 -4.03188 6e-06 -2e-06 1e-06 -10.634535 -5.686972 -3.565588 10.573272 -17.922951 -3.113899 2e-06 -13.821209 -2e-06 -0.501781 -31.181505 -4.027015 -11.850846 -60.039009 7.610641 -13.982715 -7.150199 -2.875042 13.77273 -8.401492 -3.218237 0.347735 -34.211555 0.771653 -0.963031 -17.73337 2.621021 -1e-06 1e-06 1e-06 -17.34642 -20.095219 -4.201783 21.757557 -1.638374 3.866429 1e-06 -6.338823 -1e-06 -1.697587 -22.591745 -6.194008 -1e-06 -4e-06 0.0 36.561836 -77.532089 166.70607 47.904549 -54.746639 -12.037916 26.980131 -0.107054 0.060537 -3.631449 6.804008 4.098749 22.182116 -20.375887 49.933308 -16.701813 -16.743528 28.476526 -3e-06 -12.690601 0.0 16.317209 -17.872387 2.569368 -0.105921 -1.513857 -4.275879 -5.039041 -5.612871 -2.953556 5e-06 -11.020523 -2e-06 -6.111297 -15.89533 -3.840472 -0.0 1e-06 0.0 -10.283373 -5.680288 -4.341838 11.028295 -11.302404 -2.372633 -1.384268 -14.238579 -6.320121 -0.625438 -26.924191 -3.8276 -4.240388 -49.957909 -3.768159 -13.708523 -7.363473 -3.720938 18.141146 -14.052739 -3.242672 9e-06 -18.787266 -4e-06 -0.429711 -8.456043 2.555507 1e-06 -0.0 1e-06 -15.923538 -20.094482 -5.473583 30.419214 -7.190829 1.735928 0.0 -8.162925 -2e-06 -1.861898 -22.861471 -6.167943 -1e-06 -1e-06 -1e-06 171.329895 -6.090687 -2.000424 26.692842 -0.045328 0.149151 -84.230919 7.645741 -4.856458 -6.705062 1.547853 2.112002 -1.0 0.0 -0.0 -8.527016 -3.436673 -7.425003 27.840626 -0.052334 0.032732 -84.713318 -2.18666 -6.561881 -6.583664 0.759209 1.622756 -1.000001 -1e-06 -0.0 
0.0 0.0 0.0 0.0 -0.0 0.0 1.691176 98.280785 -5.371464 89.698364 3.219035 89.792046 -2.727834 0.825721 -0.464374 -12.312454 -0.367479 -0.392238 19.63905 0.80992 -2.934217 22.736805 -2.861507 2.525389 -2.553142 -0.67568 -2.185263 -34.041378 0.67565 -5.209363 6e-06 0.0 0.0 0.034434 0.0428 0.161304 0.070493 0.026714 0.157578 0.016085 0.060333 0.168409 -119.14193 -78.238564 141.603806 56.635273 -51.407612 9.89913 21.254999 0.41326 -0.011368 -3.298923 2.202167 -6.081913 17.636631 -26.322733 52.411186 -19.46666 -14.395597 29.410389 -0.0 -8.774822 -2e-06 15.87234 -18.062195 6.180616 -0.609776 -1.795653 -3.88933 -4.807089 -11.046811 -2.937849 4e-06 -20.976019 -3e-06 -5.019969 -25.033562 -4.031882 7e-06 0.0 0.0 -10.634535 -5.686972 -3.565588 10.573272 -17.922951 -3.113901 2e-06 -13.821209 -0.0 -0.501782 -31.181505 -4.027013 -11.823042 -60.078583 7.652861 -13.982714 -7.150198 -2.875041 13.772729 -8.401493 -3.218241 0.347733 -34.211555 0.771655 -0.963032 -17.733372 2.621021 0.0 1e-06 1e-06 -17.34642 -20.095219 -4.20178 21.757557 -1.638374 3.866431 1e-06 -6.338825 2e-06 -1.69759 -22.591751 -6.194006 1e-06 -3e-06 -2e-06 36.650608 -77.495392 166.776794 48.010696 -54.719585 -12.328517 27.030973 -0.141635 0.036467 -3.511479 6.783862 3.982347 22.182117 -20.375898 49.933323 -16.701818 -16.743528 28.476536 -3e-06 -12.690602 0.0 16.315922 -17.839746 2.564297 -0.10592 -1.513857 -4.275882 -5.03904 -5.612873 -2.953557 4e-06 -11.020525 -1e-06 -6.111297 -15.895334 -3.840472 0.0 -1e-06 0.0 -10.283371 -5.680289 -4.341841 11.028296 -11.302408 -2.372633 -1.384269 -14.238582 -6.320123 -0.625437 -26.924198 -3.827602 -4.257362 -50.014015 -3.733275 -13.708524 -7.363477 -3.72094 18.14115 -14.052743 -3.242675 8e-06 -18.78727 -3e-06 -0.429709 -8.456047 2.555505 0.0 -0.0 0.0 -15.923536 -20.094484 -5.473584 30.419214 -7.190827 1.735926 1e-06 -8.162929 -1e-06 -1.861901 -22.861479 -6.167945 2e-06 -4e-06 -1e-06 171.357895 -6.123147 -1.889469 26.46965 -0.029155 0.184543 -83.993713 7.449489 -4.912876 -6.698009 1.554628 2.115375 -0.999998 0.0 0.0 -8.494941 -3.324389 -7.282722 27.523262 -0.045864 0.048306 -84.390717 -2.336331 -6.584047 -6.615606 0.740199 1.624386 -1.000002 -0.0 0.0 
0.0 0.0 0.0 0.0 -0.0 0.0 1.725199 98.2873 -5.652352 89.646393 3.292173 89.649513 -2.701453 0.844392 -0.505764 -12.313991 -0.349365 -0.387393 19.700054 0.818189 -2.914094 22.701262 -3.03067 2.515879 -2.563869 -0.633373 -2.198893 -33.941063 0.600346 -5.183153 6e-06 0.0 0.0 0.030363 0.045722 0.179959 0.063831 0.030927 0.178365 0.008895 0.061725 0.184316 -118.827072 -78.309708 141.356537 56.807163 -51.406055 9.837909 21.350864 0.414301 -0.0262 -3.21831 2.166637 -6.145289 17.636627 -26.322729 52.411194 -19.46666 -14.395597 29.410385 -1e-06 -8.774821 -3e-06 15.878672 -18.093952 6.184872 -0.609776 -1.795654 -3.889324 -4.807087 -11.046806 -2.937851 7e-06 -20.976011 -3e-06 -5.019966 -25.033546 -4.031879 6e-06 -0.0 0.0 -10.634531 -5.686967 -3.565588 10.573272 -17.922947 -3.113902 4e-06 -13.821204 -0.0 -0.501776 -31.181501 -4.027012 -11.878463 -60.057507 7.668435 -13.982711 -7.150194 -2.875043 13.772725 -8.401491 -3.218236 0.347739 -34.211544 0.771652 -0.96303 -17.733366 2.621023 1e-06 1e-06 0.0 -17.346413 -20.095207 -4.20178 21.757553 -1.638377 3.866428 1e-06 -6.338822 1e-06 -1.697588 -22.591734 -6.194004 0.0 -6e-06 -2e-06 36.611507 -77.478943 166.911835 48.057278 -54.684025 -12.453033 27.111319 -0.153646 0.013347 -3.418305 6.848518 3.835521 22.182114 -20.375891 49.933308 -16.701813 -16.743528 28.476528 -3e-06 -12.6906 1e-06 16.315168 -17.797495 2.57341 -0.10592 -1.513856 -4.275881 -5.03904 -5.612869 -2.953557 5e-06 -11.020521 -1e-06 -6.111296 -15.89533 -3.84047 0.0 2e-06 0.0 -10.283367 -5.680286 -4.341839 11.028291 -11.302404 -2.372631 -1.384266 -14.238579 -6.320121 -0.625436 -26.924189 -3.827601 -4.274168 -50.020531 -3.70983 -13.708522 -7.363475 -3.720939 18.141146 -14.05274 -3.242674 1e-05 -18.787268 -4e-06 -0.429711 -8.456042 2.555506 0.0 -0.0 3e-06 -15.923532 -20.094482 -5.473585 30.419207 -7.190828 1.735925 2e-06 -8.162925 -0.0 -1.8619 -22.861467 -6.16794 1e-06 -2e-06 -1e-06 171.222702 -6.076018 -1.838536 26.493061 -0.020782 0.187168 -83.839615 7.243832 -4.853969 -6.648808 1.550858 2.118651 -0.999998 0.0 -0.0 -8.605253 -3.260035 -7.114402 27.465891 -0.032056 0.04521 -84.152283 -2.477307 -6.639056 -6.595018 0.741398 1.62598 -1.000002 -0.0 0.0 
0.0 0.0 0.0 0.0 -0.0 0.0 1.725184 98.29142 -5.967696 89.569145 3.367389 89.491158 -2.667849 0.876296 -0.529651 -12.314135 -0.33123 -0.401003 19.78388 0.832814 -2.870901 22.61812 -3.237695 2.505752 -2.580579 -0.61179 -2.188525 -33.933121 0.565567 -5.204866 6e-06 0.0 0.0 0.029875 0.046319 0.182902 0.049913 0.032642 0.181976 -0.003338 0.060843 0.185914 -118.572266 -78.370674 141.145401 56.932583 -51.391903 9.999072 21.515835 0.44538 -0.02717 -3.149733 2.133752 -6.256794 17.636623 -26.322733 52.411194 -19.466661 -14.395596 29.410393 -0.0 -8.774821 -2e-06 15.873947 -18.101606 6.183264 -0.609776 -1.795654 -3.889326 -4.807089 -11.04681 -2.937849 4e-06 -20.976015 -2e-06 -5.019969 -25.033558 -4.031881 6e-06 -0.0 1e-06 -10.634531 -5.686971 -3.565585 10.573269 -17.922947 -3.113903 1e-06 -13.821208 -1e-06 -0.501779 -31.181505 -4.027013 -11.904986 -60.020241 7.643911 -13.982709 -7.150197 -2.875039 13.772726 -8.401491 -3.218241 0.347733 -34.211552 0.771652 -0.963028 -17.733366 2.621018 -1e-06 1e-06 3e-06 -17.346416 -20.095217 -4.201779 21.757555 -1.638373 3.866425 1e-06 -6.338823 0.0 -1.697589 -22.591742 -6.194006 -1e-06 -3e-06 -3e-06 36.529961 -77.496056 167.041 48.087902 -54.642811 -12.359716 27.206028 -0.124103 0.005812 -3.356113 6.864868 3.643621 22.182117 -20.375895 49.933327 -16.701815 -16.743526 28.47653 -3e-06 -12.690602 -0.0 16.308222 -17.75736 2.587251 -0.105921 -1.513857 -4.275882 -5.039041 -5.612871 -2.953557 5e-06 -11.020523 -2e-06 -6.111295 -15.89533 -3.840472 -1e-06 0.0 -1e-06 -10.28337 -5.680287 -4.341838 11.028294 -11.302406 -2.372633 -1.384268 -14.238578 -6.320121 -0.625437 -26.924187 -3.827603 -4.299475 -49.995117 -3.678471 -13.708527 -7.363477 -3.720941 18.141151 -14.052741 -3.242676 1e-05 -18.78727 -4e-06 -0.429711 -8.456045 2.555506 -0.0 1e-06 0.0 -15.923536 -20.094482 -5.473586 30.41921 -7.190827 1.735928 1e-06 -8.162925 0.0 -1.861899 -22.861467 -6.167945 -0.0 -2e-06 -1e-06 171.141998 -6.2225 -1.809466 26.531754 -0.01719 0.18009 -83.676315 7.128745 -4.955081 -6.619377 1.54108 2.116734 -0.999999 0.0 0.0 -8.735917 -3.140556 -6.945667 27.403082 -0.022518 0.034128 -83.890976 -2.611858 -6.680836 -6.577455 0.744974 1.62622 -1.000002 -0.0 0.0 
0.0 0.0 0.0 0.0 -0.0 0.0 1.704778 98.299225 -6.301996 89.45829 3.420473 89.343201 -2.641406 0.929806 -0.537382 -12.313778 -0.311477 -0.424129 19.874968 0.850347 -2.833246 22.446835 -3.452994 2.475556 -2.585385 -0.587067 -2.145841 -34.040527 0.552471 -5.235601 6e-06 -0.0 0.0 0.033755 0.048127 0.185175 0.047136 0.035406 0.184615 -0.006191 0.061482 0.187223 -118.36837 -78.429161 140.988235 57.085361 -51.342987 10.290885 21.682266 0.492476 -0.021893 -3.10476 2.113751 -6.350721 17.636631 -26.322729 52.411186 -19.46666 -14.395598 29.410389 -1e-06 -8.774822 -1e-06 15.840503 -18.08676 6.201162 -0.609776 -1.795653 -3.88933 -4.807088 -11.046809 -2.937849 6e-06 -20.976015 -3e-06 -5.019969 -25.033556 -4.031878 5e-06 -1e-06 0.0 -10.634536 -5.68697 -3.565588 10.573277 -17.922949 -3.113899 3e-06 -13.821206 -2e-06 -0.501779 -31.181498 -4.027011 -11.906442 -59.966499 7.638491 -13.982714 -7.150198 -2.875046 13.772731 -8.401492 -3.218241 0.347737 -34.211552 0.771652 -0.96303 -17.733372 2.621019 0.0 1e-06 1e-06 -17.346422 -20.095217 -4.201782 21.757563 -1.638376 3.866426 1e-06 -6.338823 0.0 -1.697589 -22.591742 -6.194003 1e-06 -4e-06 -3e-06 36.442085 -77.532326 167.158463 48.157841 -54.551327 -12.135774 27.248491 -0.090692 0.004365 -3.297059 6.842866 3.394222 22.182108 -20.375895 49.933319 -16.701813 -16.74353 28.476532 -3e-06 -12.690601 1e-06 16.289875 -17.747631 2.608751 -0.105921 -1.513857 -4.275882 -5.039042 -5.61287 -2.953555 4e-06 -11.020521 -1e-06 -6.111295 -15.895329 -3.840472 -0.0 -0.0 -1e-06 -10.283369 -5.680288 -4.341838 11.028292 -11.302405 -2.372632 -1.384267 -14.238579 -6.320122 -0.625436 -26.924191 -3.8276 -4.326609 -49.97543 -3.643466 -13.708525 -7.363475 -3.720937 18.141148 -14.052738 -3.242675 8e-06 -18.787266 -3e-06 -0.42971 -8.456043 2.555506 0.0 -0.0 0.0 -15.923534 -20.094482 -5.473583 30.41921 -7.190825 1.735927 2e-06 -8.162925 -0.0 -1.861901 -22.861467 -6.167942 0.0 -1e-06 -1e-06 170.979843 -6.358655 -1.810276 26.573029 -0.018585 0.174487 -83.496178 7.05975 -5.024726 -6.613238 1.534834 2.111458 -1.0 -0.0 0.0 -8.876513 -2.965926 -6.79881 27.290668 -0.018831 0.026877 -83.595367 -2.729709 -6.703337 -6.553607 0.747481 1.626668 -1.000001 0.0 -0.0 
